<svg width="30" height="20" viewBox="0 0 30 20" fill="none" xmlns="http://www.w3.org/2000/svg">
<path d="M24.1875 7.55C23.7676 5.42215 22.622 3.50607 20.9463 2.12906C19.2707 0.752041 17.1689 -0.000490303 15 2.39671e-07C11.3875 2.39671e-07 8.25 2.05 6.6875 5.05C4.85029 5.24854 3.15126 6.11901 1.91686 7.49415C0.682464 8.86929 -0.000214627 10.6521 5.06159e-08 12.5C5.06159e-08 16.6375 3.3625 20 7.5 20H23.75C27.2 20 30 17.2 30 13.75C30 10.45 27.4375 7.775 24.1875 7.55ZM12.5 16.25L8.125 11.875L9.8875 10.1125L12.5 12.725L18.975 6.25L20.7375 8.0125L12.5 16.25Z" fill="#DFDAF8"/>
</svg>
