<svg width="30" height="30" viewBox="0 0 30 30" fill="none" xmlns="http://www.w3.org/2000/svg">
<g clip-path="url(#clip0_33_178)">
<path d="M27.5 6.36658C26.3833 4.07492 23.1667 2.19992 19.425 3.29158C17.6371 3.80803 16.0771 4.91557 15 6.43325C13.9229 4.91557 12.363 3.80803 10.575 3.29158C6.825 2.21658 3.61667 4.07492 2.5 6.36658C0.933337 9.57492 1.58334 13.1833 4.43334 17.0916C6.66667 20.1499 9.85834 23.2499 14.4917 26.8499C14.6381 26.9641 14.8185 27.0261 15.0042 27.0261C15.1899 27.0261 15.3702 26.9641 15.5167 26.8499C20.1417 23.2583 23.3417 20.1833 25.575 17.0916C28.4167 13.1833 29.0667 9.57492 27.5 6.36658Z" fill="#DFDAF8"/>
</g>
<defs>
<clipPath id="clip0_33_178">
<rect width="30" height="30" fill="white"/>
</clipPath>
</defs>
</svg>
