<svg width="30" height="30" viewBox="0 0 30 30" fill="none" xmlns="http://www.w3.org/2000/svg">
<path d="M25.3125 8.6719H20.4773C20.7255 8.51613 20.9606 8.34055 21.1805 8.1469C21.512 7.8515 21.7791 7.4909 21.965 7.08764C22.1509 6.68438 22.2516 6.24711 22.2609 5.80315C22.2753 5.31478 22.1898 4.82861 22.0098 4.37442C21.8297 3.92024 21.5587 3.5076 21.2136 3.16179C20.8684 2.81597 20.4563 2.54427 20.0025 2.36331C19.5486 2.18235 19.0626 2.09595 18.5742 2.1094C18.1303 2.1187 17.693 2.21945 17.2897 2.40536C16.8865 2.59126 16.5259 2.85833 16.2305 3.18987C15.6876 3.83047 15.2702 4.56752 15 5.36253C14.7304 4.56811 14.3138 3.83148 13.7719 3.19104C13.4763 2.859 13.1154 2.59155 12.7117 2.40543C12.308 2.21931 11.8702 2.11853 11.4258 2.1094C10.9371 2.09531 10.4507 2.18119 9.99636 2.36179C9.54205 2.54239 9.12942 2.81389 8.78377 3.15964C8.43813 3.50539 8.16676 3.91811 7.98631 4.37248C7.80586 4.82685 7.72013 5.3133 7.73438 5.80198C7.74367 6.24594 7.84442 6.6832 8.03033 7.08647C8.21623 7.48973 8.4833 7.85033 8.81484 8.14573C9.03448 8.33965 9.26964 8.51524 9.51797 8.67073H4.6875C4.47195 8.67073 4.25852 8.7132 4.05939 8.79573C3.86026 8.87825 3.67935 8.9992 3.52699 9.15167C3.37463 9.30414 3.2538 9.48514 3.17142 9.68433C3.08904 9.88351 3.04672 10.097 3.04688 10.3125V14.0625C3.04688 14.4976 3.21973 14.9149 3.5274 15.2226C3.83508 15.5303 4.25238 15.7032 4.6875 15.7032H4.92188V23.4375C4.92188 23.8726 5.09473 24.2899 5.4024 24.5976C5.71008 24.9053 6.12738 25.0782 6.5625 25.0782H23.4375C23.8726 25.0782 24.2899 24.9053 24.5976 24.5976C24.9053 24.2899 25.0781 23.8726 25.0781 23.4375V15.7032H25.3125C25.7476 15.7032 26.1649 15.5303 26.4726 15.2226C26.7803 14.9149 26.9531 14.4976 26.9531 14.0625V10.3125C26.9531 9.87741 26.7803 9.46011 26.4726 9.15243C26.1649 8.84475 25.7476 8.6719 25.3125 8.6719ZM15.9105 7.38284C16.1742 5.96253 16.6477 4.83401 17.2805 4.11917C17.4498 3.93228 17.6558 3.78225 17.8856 3.67842C18.1155 3.57459 18.3642 3.51918 18.6164 3.51565H18.6809C18.9724 3.51569 19.261 3.57421 19.5295 3.68775C19.798 3.8013 20.0411 3.96756 20.2442 4.1767C20.4473 4.38583 20.6064 4.6336 20.7121 4.90532C20.8178 5.17704 20.8678 5.4672 20.8594 5.75862C20.8554 6.01106 20.7994 6.25996 20.695 6.48981C20.5906 6.71966 20.4399 6.92553 20.2523 7.09456C18.9961 8.20315 16.8656 8.53479 15.743 8.63089C15.7723 8.29221 15.8203 7.86096 15.9105 7.38284ZM9.7793 4.15432C10.1883 3.74678 10.7417 3.51725 11.3191 3.51565H11.3836C11.636 3.51963 11.8849 3.57558 12.1148 3.68003C12.3446 3.78447 12.5505 3.93515 12.7195 4.12268C13.8281 5.37893 14.1598 7.5094 14.2559 8.63206C13.9172 8.60276 13.4859 8.55237 13.0125 8.46448C11.5922 8.20315 10.4637 7.72737 9.74883 7.09339C9.56101 6.92477 9.41004 6.71918 9.30538 6.4895C9.20072 6.25982 9.14463 6.01099 9.14063 5.75862C9.13254 5.46185 9.185 5.16655 9.29481 4.89072C9.40461 4.6149 9.56946 4.36434 9.7793 4.15432ZM4.45313 14.0625V10.3125C4.45313 10.2504 4.47782 10.1908 4.52177 10.1468C4.56573 10.1028 4.62534 10.0782 4.6875 10.0782H14.2969V14.2969H4.6875C4.62534 14.2969 4.56573 14.2722 4.52177 14.2283C4.47782 14.1843 4.45313 14.1247 4.45313 14.0625ZM6.32813 23.4375V15.7032H14.2969V23.6719H6.5625C6.50034 23.6719 6.44073 23.6472 6.39677 23.6033C6.35282 23.5593 6.32813 23.4997 6.32813 23.4375ZM23.6719 23.4375C23.6719 23.4997 23.6472 23.5593 23.6032 23.6033C23.5593 23.6472 23.4997 23.6719 23.4375 23.6719H15.7031V15.7032H23.6719V23.4375ZM25.5469 14.0625C25.5469 14.1247 25.5222 14.1843 25.4782 14.2283C25.4343 14.2722 25.3747 14.2969 25.3125 14.2969H15.7031V10.0782H25.3125C25.3747 10.0782 25.4343 10.1028 25.4782 10.1468C25.5222 10.1908 25.5469 10.2504 25.5469 10.3125V14.0625Z" fill="black" fill-opacity="0.6"/>
</svg>
