<svg width="30" height="30" viewBox="0 0 30 30" fill="none" xmlns="http://www.w3.org/2000/svg">
<path d="M3 7.125C3 6.03098 3.4346 4.98177 4.20818 4.20818C4.98177 3.4346 6.03098 3 7.125 3H22.875C23.969 3 25.0182 3.4346 25.7918 4.20818C26.5654 4.98177 27 6.03098 27 7.125V16.5H25.5V12H13.0605L15.531 14.469C15.6718 14.6098 15.7509 14.8008 15.7509 15C15.7509 15.1992 15.6718 15.3902 15.531 15.531C15.3902 15.6718 15.1992 15.7509 15 15.7509C14.8008 15.7509 14.6098 15.6718 14.469 15.531L12 13.0605V19.5H13.6815C13.561 19.8302 13.4995 20.179 13.5 20.5305V21H7.125C6.03098 21 4.98177 20.5654 4.20818 19.7918C3.4346 19.0182 3 17.969 3 16.875V7.125ZM4.5 12V16.875C4.5 18.324 5.676 19.5 7.125 19.5H10.5V13.0605L8.031 15.531C7.89017 15.6718 7.69916 15.7509 7.5 15.7509C7.30084 15.7509 7.10983 15.6718 6.969 15.531C6.82817 15.3902 6.74905 15.1992 6.74905 15C6.74905 14.8008 6.82817 14.6098 6.969 14.469L9.4395 12H4.5ZM6.402 10.5C6.07186 9.92808 5.93964 9.26321 6.02586 8.6085C6.11208 7.95378 6.41191 7.34581 6.87886 6.87886C7.34581 6.41191 7.95378 6.11208 8.6085 6.02586C9.26321 5.93964 9.92808 6.07186 10.5 6.402V4.5H7.125C6.42881 4.5 5.76113 4.77656 5.26884 5.26884C4.77656 5.76113 4.5 6.42881 4.5 7.125V10.5H6.402ZM9 10.5H10.5V9C10.5 8.70333 10.412 8.41332 10.2472 8.16665C10.0824 7.91997 9.84811 7.72771 9.57403 7.61418C9.29994 7.50065 8.99834 7.47094 8.70736 7.52882C8.41639 7.5867 8.14912 7.72956 7.93934 7.93934C7.72956 8.14912 7.5867 8.41639 7.52882 8.70736C7.47094 8.99834 7.50065 9.29994 7.61418 9.57403C7.72771 9.84811 7.91997 10.0824 8.16665 10.2472C8.41332 10.412 8.70333 10.5 9 10.5ZM12 9V10.5H13.5C13.7967 10.5 14.0867 10.412 14.3334 10.2472C14.58 10.0824 14.7723 9.84811 14.8858 9.57403C14.9994 9.29994 15.0291 8.99834 14.9712 8.70736C14.9133 8.41639 14.7704 8.14912 14.5607 7.93934C14.3509 7.72956 14.0836 7.5867 13.7926 7.52882C13.5017 7.47094 13.2001 7.50065 12.926 7.61418C12.6519 7.72771 12.4176 7.91997 12.2528 8.16665C12.088 8.41332 12 8.70333 12 9ZM16.098 10.5H25.5V7.125C25.5 6.42881 25.2234 5.76113 24.7312 5.26884C24.2389 4.77656 23.5712 4.5 22.875 4.5H12V6.402C12.5719 6.07186 13.2368 5.93964 13.8915 6.02586C14.5462 6.11208 15.1542 6.41191 15.6211 6.87886C16.0881 7.34581 16.3879 7.95378 16.4741 8.6085C16.5604 9.26321 16.4281 9.92808 16.098 10.5ZM28.5 20.25V24.75C28.5 25.3467 28.2629 25.919 27.841 26.341C27.419 26.7629 26.8467 27 26.25 27H17.25C16.6533 27 16.081 26.7629 15.659 26.341C15.2371 25.919 15 25.3467 15 24.75V20.25C15 19.6533 15.2371 19.081 15.659 18.659C16.081 18.2371 16.6533 18 17.25 18H26.25C26.8467 18 27.419 18.2371 27.841 18.659C28.2629 19.081 28.5 19.6533 28.5 20.25ZM27 24.75V23.25C26.4033 23.25 25.831 23.4871 25.409 23.909C24.9871 24.331 24.75 24.9033 24.75 25.5H26.25C26.25 25.3011 26.329 25.1103 26.4697 24.9697C26.6103 24.829 26.8011 24.75 27 24.75ZM26.25 19.5H24.75C24.75 20.0967 24.9871 20.669 25.409 21.091C25.831 21.5129 26.4033 21.75 27 21.75V20.25C26.8011 20.25 26.6103 20.171 26.4697 20.0303C26.329 19.8897 26.25 19.6989 26.25 19.5ZM17.25 19.5C17.25 19.6989 17.171 19.8897 17.0303 20.0303C16.8897 20.171 16.6989 20.25 16.5 20.25V21.75C17.0967 21.75 17.669 21.5129 18.091 21.091C18.5129 20.669 18.75 20.0967 18.75 19.5H17.25ZM16.5 24.75C16.6989 24.75 16.8897 24.829 17.0303 24.9697C17.171 25.1103 17.25 25.3011 17.25 25.5H18.75C18.75 24.9033 18.5129 24.331 18.091 23.909C17.669 23.4871 17.0967 23.25 16.5 23.25V24.75ZM21.75 20.25C21.1533 20.25 20.581 20.4871 20.159 20.909C19.7371 21.331 19.5 21.9033 19.5 22.5C19.5 23.0967 19.7371 23.669 20.159 24.091C20.581 24.5129 21.1533 24.75 21.75 24.75C22.3467 24.75 22.919 24.5129 23.341 24.091C23.7629 23.669 24 23.0967 24 22.5C24 21.9033 23.7629 21.331 23.341 20.909C22.919 20.4871 22.3467 20.25 21.75 20.25Z" fill="black" fill-opacity="0.6"/>
</svg>
